<svg width="26" height="26" viewBox="0 0 26 26" fill="none" xmlns="http://www.w3.org/2000/svg">
<path d="M4.26809 18.5097C3.14319 18.5103 2.22913 17.595 2.22892 16.4703L2.22852 10.2265C2.22811 9.10278 3.14197 8.1877 4.26545 8.1875C4.81166 8.18709 5.32313 8.39895 5.70866 8.78408C6.09419 9.1692 6.30625 9.68149 6.30666 10.2261L6.30605 16.4701C6.30746 16.7378 6.25554 17.0031 6.15332 17.2505C6.0511 17.4979 5.90063 17.7225 5.71069 17.9111C5.52188 18.1015 5.29712 18.2524 5.04947 18.3552C4.80182 18.458 4.53622 18.5105 4.26809 18.5097ZM4.26647 8.73533C3.4432 8.73492 2.77594 9.40381 2.77573 10.2265L2.77675 16.4697C2.7767 16.8653 2.93374 17.2448 3.21335 17.5247C3.49296 17.8046 3.87227 17.962 4.26789 17.9623C4.4638 17.9623 4.65779 17.9237 4.83878 17.8487C5.01976 17.7737 5.18418 17.6637 5.32263 17.5251C5.46109 17.3865 5.57086 17.222 5.64567 17.0409C5.72048 16.8599 5.75887 16.6658 5.75863 16.4699V10.2257C5.75819 9.83021 5.60079 9.45112 5.321 9.17167C5.0412 8.89222 4.66191 8.73528 4.26647 8.73533Z" fill="white"/>
<path d="M20.2601 9.04456L19.7121 9.04436L6.28164 9.04619L5.73341 9.04639L5.733 8.49815C5.73178 6.24753 6.95785 4.15433 8.96614 2.9177L8.18533 1.49237C8.08986 1.3254 8.06589 1.11395 8.12155 0.920576C8.14976 0.824131 8.19686 0.734256 8.26012 0.656179C8.32337 0.578102 8.40152 0.513381 8.49002 0.465779C8.59943 0.405538 8.72242 0.374282 8.84731 0.374982C9.12397 0.374982 9.37727 0.525091 9.51092 0.767622L10.3281 2.25633C11.1804 1.9444 12.0812 1.78588 12.9888 1.78812C13.9244 1.78772 14.8216 1.94595 15.6709 2.25754L16.4868 0.766404C16.5518 0.647439 16.6477 0.548199 16.7643 0.479135C16.881 0.410071 17.0141 0.373739 17.1496 0.373966C17.2744 0.373572 17.3973 0.404142 17.5073 0.462935C17.596 0.510519 17.6742 0.575391 17.7373 0.653715C17.8005 0.73204 17.8473 0.822228 17.875 0.918951C17.9029 1.01433 17.9116 1.11431 17.9005 1.21306C17.8894 1.31182 17.8588 1.40739 17.8104 1.4942L17.03 2.91872C19.035 4.15798 20.2597 6.24956 20.2595 8.49633L20.2601 9.04456ZM16.2898 3.12875L17.3304 1.22851C17.3453 1.20464 17.3551 1.17799 17.3593 1.15019C17.3636 1.12239 17.3621 1.09402 17.355 1.06682C17.3479 1.03961 17.3353 1.01414 17.318 0.991958C17.3007 0.969773 17.2791 0.951341 17.2545 0.937787C17.2298 0.924233 17.2027 0.91584 17.1747 0.913121C17.1467 0.910402 17.1185 0.913413 17.0917 0.921972C17.0649 0.93053 17.0402 0.944457 17.0189 0.9629C16.9977 0.981344 16.9805 1.00392 16.9683 1.02925L15.9169 2.94878C15.0325 2.55594 14.0422 2.33514 12.9955 2.33615C11.9511 2.33514 10.9627 2.55512 10.0809 2.94654L9.0285 1.03128C9.01566 1.00734 8.99818 0.986198 8.9771 0.969075C8.95601 0.951952 8.93172 0.939193 8.90566 0.931538C8.8796 0.923883 8.85227 0.921486 8.82527 0.924486C8.79827 0.927486 8.77214 0.935823 8.74839 0.949013C8.64744 1.00304 8.61027 1.13 8.66653 1.22912L9.70755 3.12794C7.66208 4.18297 6.28002 6.19187 6.28124 8.49836L19.7115 8.49673C19.7121 6.19106 18.3324 4.18622 16.2898 3.12875M9.94094 6.06533C9.79158 6.06525 9.64837 6.00583 9.54281 5.90016C9.43725 5.79449 9.378 5.65122 9.37808 5.50186C9.37816 5.3525 9.43757 5.20929 9.54324 5.10373C9.64891 4.99817 9.79219 4.93892 9.94155 4.939C10.0909 4.93927 10.2341 4.99871 10.3398 5.10432C10.4454 5.20993 10.5049 5.35309 10.5052 5.50247C10.505 5.65193 10.4454 5.79518 10.3396 5.90073C10.2338 6.00628 10.0904 6.06549 9.94094 6.06533M16.0564 6.06411C15.9825 6.06424 15.9092 6.04977 15.8408 6.02154C15.7725 5.9933 15.7104 5.95185 15.6581 5.89956C15.6057 5.84727 15.5643 5.78517 15.536 5.71682C15.5077 5.64847 15.4933 5.57521 15.4934 5.50125C15.4939 5.35193 15.5534 5.20887 15.6589 5.10319C15.7644 4.99751 15.9073 4.93777 16.0566 4.93697C16.2057 4.93819 16.3483 4.99814 16.4536 5.1038C16.5588 5.20947 16.6181 5.35234 16.6187 5.50145C16.6187 5.57531 16.6042 5.64846 16.5759 5.71671C16.5477 5.78496 16.5063 5.84698 16.4541 5.89923C16.4019 5.95147 16.3399 5.99292 16.2716 6.02122C16.2034 6.04951 16.1303 6.06408 16.0564 6.06411M10.5038 25.6261C9.37991 25.6259 8.46524 24.7118 8.46503 23.5871L8.46463 20.8313L7.92878 20.8319C7.64773 20.8329 7.36928 20.778 7.10958 20.6706C6.84988 20.5631 6.6141 20.4052 6.41591 20.2059C6.21634 20.0077 6.0582 19.7718 5.95068 19.512C5.84317 19.2521 5.78844 18.9734 5.78967 18.6922L5.78764 9.01795V8.46931H6.33588L19.6655 8.46728L20.214 8.46687V9.01511L20.2154 18.6906C20.2156 19.8705 19.2556 20.8307 18.0761 20.8305L17.537 20.8309L17.5376 23.5857C17.5376 24.7098 16.6231 25.6248 15.4997 25.6248C15.2318 25.6261 14.9663 25.574 14.7188 25.4716C14.4712 25.3691 14.2466 25.2184 14.0579 25.0283C13.8676 24.8397 13.7166 24.6151 13.6139 24.3677C13.5111 24.1202 13.4585 23.8548 13.4593 23.5869V20.8309H12.543V23.5863C12.5426 24.7106 11.6283 25.6263 10.5038 25.6261" fill="white"/>
<path d="M6.33853 18.6919C6.33807 18.901 6.3789 19.1081 6.45866 19.3014C6.53842 19.4947 6.65555 19.6703 6.80334 19.8182C6.95112 19.9661 7.12664 20.0833 7.31985 20.1632C7.51305 20.2431 7.72012 20.2841 7.9292 20.2838H9.01246L9.01368 23.5875C9.01348 24.4101 9.68176 25.0786 10.5036 25.0788C10.6995 25.0787 10.8934 25.04 11.0744 24.9649C11.2553 24.8899 11.4196 24.7799 11.5581 24.6413C11.6965 24.5027 11.8062 24.3382 11.881 24.1571C11.9559 23.9761 11.9943 23.7821 11.9941 23.5862L11.9943 20.2836L14.0071 20.283L14.0069 23.5864C14.0077 24.4093 14.6768 25.0786 15.4984 25.077C16.3223 25.0776 16.9902 24.4083 16.99 23.5852L16.989 20.2826L18.0763 20.2824C18.9536 20.2826 19.6672 19.5699 19.6672 18.6905L19.6654 9.01466L6.33609 9.0171L6.33853 18.6919ZM21.7336 18.5071C20.6091 18.5073 19.6944 17.5934 19.6946 16.4685L19.693 10.2249C19.6934 9.10018 20.6066 8.1853 21.7305 8.1853C22.8558 8.1851 23.7711 9.09977 23.7709 10.2243L23.7715 16.4675C23.7717 17.5916 22.8579 18.5073 21.7336 18.5071M21.7315 8.73354C20.9083 8.73272 20.2412 9.40121 20.2412 10.2249L20.2418 16.4683C20.2417 16.6642 20.2802 16.8581 20.3551 17.0391C20.4301 17.2201 20.5399 17.3845 20.6784 17.523C20.8169 17.6614 20.9814 17.7712 21.1624 17.8461C21.3433 17.921 21.5373 17.9594 21.7332 17.9593C21.929 17.9593 22.1229 17.9207 22.3038 17.8457C22.4847 17.7707 22.6491 17.6609 22.7875 17.5223C22.9259 17.3838 23.0357 17.2194 23.1105 17.0384C23.1854 16.8575 23.2238 16.6635 23.2237 16.4677L23.2221 10.2245C23.2222 10.0287 23.1837 9.83478 23.1089 9.65385C23.034 9.47293 22.9243 9.30854 22.7858 9.17007C22.6474 9.0316 22.483 8.92178 22.3021 8.84687C22.1212 8.77197 21.9273 8.73346 21.7315 8.73354" fill="white"/>
<path d="M4.26643 8.73539C3.44316 8.73499 2.7759 9.40388 2.7757 10.2265L2.77671 16.4698C2.77658 16.6657 2.81506 16.8597 2.88996 17.0407C2.96485 17.2217 3.0747 17.3862 3.21321 17.5247C3.35171 17.6632 3.51617 17.7731 3.69717 17.848C3.87817 17.9229 4.07216 17.9614 4.26806 17.9613C4.46392 17.9615 4.65791 17.9231 4.8389 17.8482C5.01989 17.7734 5.18432 17.6635 5.32278 17.525C5.46125 17.3864 5.57101 17.2219 5.6458 17.0409C5.72058 16.8599 5.75891 16.6659 5.75859 16.47V10.2257C5.75816 9.83028 5.60075 9.45118 5.32096 9.17173C5.04116 8.89228 4.66187 8.73534 4.26643 8.73539ZM16.2898 3.12874L17.3304 1.2285C17.3569 1.1803 17.3632 1.12355 17.348 1.0707C17.3327 1.01785 17.2971 0.973206 17.249 0.946566C17.2007 0.920483 17.1442 0.914538 17.0916 0.930026C17.039 0.945515 16.9946 0.981181 16.9682 1.02924L15.9171 2.94938C15.0327 2.55572 14.0428 2.33513 12.9955 2.33614C11.9511 2.33513 10.9616 2.55511 10.0809 2.94653L9.02849 1.03127C9.01565 1.00736 8.99818 0.986241 8.97711 0.969131C8.95605 0.952021 8.93179 0.939261 8.90576 0.931591C8.87972 0.92392 8.85243 0.921492 8.82545 0.924446C8.79847 0.9274 8.77234 0.935678 8.74859 0.9488C8.7246 0.96162 8.70341 0.979095 8.68626 1.0002C8.66911 1.02131 8.65634 1.04562 8.6487 1.07173C8.64106 1.09783 8.6387 1.12519 8.64176 1.15221C8.64482 1.17924 8.65324 1.20538 8.66652 1.22911L9.70754 3.12813C7.66207 4.18296 6.28001 6.19186 6.28123 8.49835L19.7114 8.49672C19.7121 6.19105 18.3324 4.18621 16.2898 3.12874M9.94093 6.06532C9.79157 6.06524 9.64836 6.00582 9.5428 5.90015C9.43725 5.79448 9.37799 5.65121 9.37807 5.50185C9.37815 5.35249 9.43756 5.20928 9.54323 5.10372C9.6489 4.99816 9.79218 4.93891 9.94154 4.93899C10.0909 4.93926 10.2341 4.9987 10.3397 5.10431C10.4454 5.20992 10.5049 5.35308 10.5052 5.50246C10.505 5.65192 10.4454 5.79517 10.3396 5.90072C10.2338 6.00627 10.0904 6.06548 9.94093 6.06532M16.0564 6.0641C15.9825 6.06415 15.9092 6.04963 15.8409 6.02136C15.7726 5.9931 15.7105 5.95165 15.6582 5.89937C15.6059 5.8471 15.5645 5.78503 15.5362 5.71671C15.5079 5.6484 15.4933 5.57518 15.4934 5.50124C15.4941 5.352 15.5537 5.20909 15.6591 5.10347C15.7646 4.99785 15.9074 4.93802 16.0566 4.93696C16.2057 4.93818 16.3483 4.99813 16.4535 5.10379C16.5588 5.20946 16.6181 5.35233 16.6187 5.50144C16.6187 5.57532 16.6043 5.64849 16.576 5.71676C16.5478 5.78504 16.5064 5.84708 16.4542 5.89933C16.402 5.95159 16.34 5.99304 16.2717 6.02131C16.2035 6.04959 16.1303 6.06412 16.0564 6.0641M6.33607 9.01713L6.33831 18.693C6.33806 18.902 6.37905 19.1089 6.45892 19.302C6.53878 19.4952 6.65596 19.6706 6.80374 19.8184C6.95151 19.9661 7.12699 20.0833 7.32011 20.1631C7.51323 20.243 7.72021 20.2839 7.92918 20.2837L9.01245 20.2841L9.01366 23.5877C9.01346 24.4103 9.68215 25.079 10.5036 25.079C11.3275 25.079 11.9949 24.4097 11.9951 23.5867L11.9943 20.2839L14.0071 20.2833L14.0079 23.5867C14.0079 24.4087 14.6768 25.0788 15.4984 25.0772C16.3223 25.0778 16.9902 24.4085 16.99 23.5855L16.989 20.2828L18.0761 20.282C18.2851 20.2821 18.492 20.2409 18.6851 20.161C18.8782 20.081 19.0537 19.9638 19.2015 19.816C19.3493 19.6683 19.4665 19.4929 19.5466 19.2998C19.6266 19.1067 19.6677 18.8998 19.6678 18.6908L19.6659 9.01489L6.33607 9.01713V9.01713ZM23.2227 10.2243C23.2227 10.0285 23.1841 9.8346 23.1092 9.6537C23.0343 9.47279 22.9244 9.30843 22.786 9.16999C22.6475 9.03155 22.4831 8.92175 22.3022 8.84687C22.1212 8.77199 21.9273 8.73349 21.7315 8.73357C20.9083 8.73275 20.2412 9.40124 20.2412 10.2249L20.2424 16.4686C20.2423 16.6644 20.2807 16.8583 20.3556 17.0392C20.4305 17.2201 20.5403 17.3845 20.6787 17.523C20.8172 17.6614 20.9816 17.7712 21.1625 17.8461C21.3434 17.921 21.5373 17.9594 21.7331 17.9593C21.929 17.9593 22.1229 17.9208 22.3038 17.8458C22.4847 17.7708 22.6491 17.661 22.7875 17.5224C22.926 17.3839 23.0357 17.2195 23.1106 17.0385C23.1854 16.8575 23.2238 16.6636 23.2237 16.4678L23.2227 10.2243V10.2243Z" fill="#A4C439"/>
</svg>
