<svg width="95" height="95" viewBox="0 0 95 95" fill="none" xmlns="http://www.w3.org/2000/svg">
<path d="M94.2573 47.5C94.2573 59.8326 89.3582 71.6601 80.6378 80.3805C71.9173 89.101 60.0898 94 47.7573 94C35.4247 94 23.5972 89.1009 14.8768 80.3805C6.15639 71.66 1.25732 59.8326 1.25732 47.5C1.25732 35.1675 6.15639 23.34 14.8768 14.6196C23.5972 5.89915 35.4247 1.00004 47.7573 1C60.0898 1 71.9173 5.89908 80.6378 14.6195C89.3582 23.34 94.2573 35.1674 94.2573 47.5Z" fill="url(#paint0_linear_101_205)" stroke="#CDCDCD" stroke-width="0.753985" stroke-linecap="round" stroke-linejoin="round"/>
<path d="M90.6135 47.5C90.6135 58.8662 86.0983 69.7669 78.0612 77.804C70.024 85.8411 59.1234 90.3563 47.7571 90.3563C36.3909 90.3563 25.4903 85.8411 17.4532 77.804C9.41607 69.7668 4.90088 58.8662 4.90088 47.5C4.90088 36.1338 9.41607 25.2331 17.4532 17.196C25.4903 9.15888 36.3909 4.64366 47.7571 4.64362C59.1234 4.64362 70.024 9.15883 78.0612 17.196C86.0983 25.2331 90.6135 36.1338 90.6135 47.5Z" fill="url(#paint1_radial_101_205)"/>
<path d="M47.7574 6.87866C47.6753 6.87847 47.594 6.8945 47.5181 6.92584C47.4421 6.95717 47.3732 7.0032 47.3151 7.06127C47.257 7.11934 47.211 7.18831 47.1797 7.26422C47.1483 7.34013 47.1323 7.42148 47.1325 7.50361V14.7107C47.1323 14.7928 47.1483 14.8741 47.1797 14.95C47.211 15.026 47.257 15.0949 47.3151 15.153C47.3732 15.2111 47.4421 15.2571 47.5181 15.2884C47.594 15.3198 47.6753 15.3358 47.7574 15.3356C47.8395 15.3358 47.9209 15.3197 47.9967 15.2883C48.0726 15.257 48.1416 15.211 48.1996 15.1529C48.2576 15.0948 48.3036 15.0259 48.3349 14.95C48.3663 14.8741 48.3823 14.7928 48.3821 14.7107V7.50346C48.3823 7.42136 48.3662 7.34004 48.3349 7.26415C48.3036 7.18827 48.2575 7.11932 48.1995 7.06127C48.1414 7.00322 48.0725 6.9572 47.9966 6.92586C47.9207 6.89453 47.8394 6.87849 47.7573 6.87866H47.7574ZM43.6698 7.13695C43.6275 7.13244 43.5849 7.13264 43.5427 7.13755C43.461 7.14588 43.3818 7.17027 43.3096 7.20931C43.2373 7.24834 43.1735 7.30126 43.1218 7.36503C43.0701 7.42879 43.0315 7.50214 43.0082 7.58087C42.9849 7.6596 42.9773 7.74216 42.986 7.8238L43.301 10.839C43.3094 10.9207 43.3338 10.9999 43.3728 11.0721C43.4118 11.1443 43.4648 11.2081 43.5285 11.2599C43.5923 11.3116 43.6656 11.3502 43.7444 11.3735C43.8231 11.3968 43.9056 11.4043 43.9873 11.3956C44.069 11.3873 44.1482 11.3629 44.2205 11.3239C44.2927 11.2848 44.3565 11.2319 44.4082 11.1681C44.46 11.1043 44.4986 11.031 44.5219 10.9522C44.5452 10.8735 44.5527 10.7909 44.5439 10.7092L44.2292 7.69421C44.2146 7.55099 44.1509 7.41725 44.0489 7.31567C43.9469 7.2141 43.8129 7.15095 43.6696 7.13695H43.6698ZM51.8736 7.13992C51.7303 7.15384 51.5963 7.21692 51.4942 7.31844C51.3922 7.41996 51.3284 7.55367 51.3137 7.69688L50.9966 10.7118C50.9879 10.7934 50.9954 10.876 51.0186 10.9548C51.0419 11.0335 51.0804 11.1069 51.1321 11.1707C51.1838 11.2346 51.2476 11.2875 51.3198 11.3266C51.3921 11.3657 51.4713 11.3902 51.553 11.3986C51.6346 11.4074 51.7172 11.3999 51.7959 11.3767C51.8746 11.3534 51.948 11.3149 52.0118 11.2632C52.0756 11.2115 52.1285 11.1478 52.1676 11.0756C52.2067 11.0034 52.2311 10.9242 52.2395 10.8425L52.5566 7.82736C52.5653 7.74572 52.5579 7.66316 52.5346 7.58441C52.5113 7.50566 52.4728 7.43229 52.4211 7.3685C52.3694 7.3047 52.3056 7.25175 52.2334 7.21268C52.1611 7.17361 52.0819 7.14918 52.0002 7.14081C51.9581 7.1365 51.9156 7.13626 51.8735 7.14007L51.8736 7.13992ZM39.4708 7.74587C39.3779 7.74611 39.2863 7.76707 39.2026 7.80723C39.1189 7.84739 39.0453 7.90573 38.987 7.97799C38.9287 8.05026 38.8874 8.13462 38.8659 8.22492C38.8443 8.31523 38.8433 8.40919 38.8627 8.49996L40.3552 15.5508C40.372 15.6312 40.4046 15.7075 40.4509 15.7752C40.4973 15.843 40.5566 15.9009 40.6254 15.9457C40.6943 15.9904 40.7713 16.0212 40.852 16.0361C40.9327 16.051 41.0156 16.0499 41.0959 16.0327C41.1763 16.0159 41.2525 15.9834 41.3202 15.937C41.388 15.8907 41.4459 15.8314 41.4907 15.7626C41.5355 15.6938 41.5662 15.6168 41.5812 15.5361C41.5962 15.4554 41.5951 15.3725 41.5779 15.2923L40.0853 8.24122C40.0558 8.10035 39.9785 7.974 39.8665 7.88363C39.7545 7.79326 39.6147 7.74443 39.4708 7.74542V7.74587ZM56.0723 7.75181C55.9284 7.75057 55.7885 7.79924 55.6764 7.88952C55.5643 7.9798 55.4869 8.10613 55.4575 8.24701L53.9597 15.2969C53.9425 15.3771 53.9412 15.46 53.9561 15.5408C53.971 15.6215 54.0017 15.6985 54.0464 15.7674C54.0912 15.8362 54.1491 15.8956 54.2168 15.942C54.2845 15.9884 54.3607 16.021 54.4411 16.0379C54.5214 16.0551 54.6042 16.0563 54.685 16.0415C54.7657 16.0266 54.8427 15.9959 54.9116 15.9512C54.9804 15.9065 55.0398 15.8486 55.0862 15.7809C55.1326 15.7132 55.1652 15.637 55.1821 15.5566L56.6799 8.50664C56.6994 8.41589 56.6984 8.32193 56.6769 8.23162C56.6555 8.14131 56.6141 8.05693 56.5559 7.98464C56.4977 7.91235 56.4241 7.85397 56.3404 7.81377C56.2567 7.77356 56.1651 7.75255 56.0723 7.75225V7.75181ZM35.4634 8.87581C35.38 8.86826 35.296 8.87806 35.2167 8.90461C35.1385 8.92981 35.0662 8.97018 35.0037 9.02342C34.9412 9.07666 34.8898 9.14172 34.8525 9.21486C34.8153 9.288 34.7928 9.36779 34.7864 9.44963C34.7801 9.53148 34.7899 9.61378 34.8154 9.69181L35.7521 12.5752C35.7773 12.6533 35.8177 12.7257 35.871 12.7882C35.9242 12.8507 35.9893 12.9021 36.0625 12.9394C36.1357 12.9767 36.2155 12.9991 36.2974 13.0055C36.3792 13.0118 36.4616 13.0019 36.5396 12.9764C36.6178 12.9512 36.6902 12.9108 36.7527 12.8575C36.8152 12.8043 36.8665 12.7392 36.9038 12.666C36.941 12.5928 36.9635 12.513 36.9698 12.4311C36.9762 12.3493 36.9663 12.2669 36.9407 12.1889L36.0039 9.30571C35.9662 9.18876 35.8948 9.08555 35.7986 9.00907C35.7024 8.93258 35.5858 8.88622 35.4634 8.87581ZM60.057 8.8773C59.9346 8.88772 59.8179 8.93409 59.7218 9.01057C59.6256 9.08706 59.5542 9.19025 59.5165 9.30719L58.5791 12.1902C58.5535 12.2683 58.5437 12.3506 58.55 12.4324C58.5563 12.5143 58.5788 12.5941 58.6161 12.6672C58.6533 12.7404 58.7047 12.8055 58.7672 12.8587C58.8297 12.912 58.902 12.9524 58.9802 12.9776C59.0582 13.0031 59.1405 13.013 59.2223 13.0067C59.3042 13.0004 59.384 12.9779 59.4571 12.9407C59.5303 12.9034 59.5954 12.8521 59.6486 12.7896C59.7019 12.7271 59.7423 12.6548 59.7675 12.5766L60.7049 9.69329C60.7305 9.61527 60.7404 9.53298 60.734 9.45113C60.7277 9.36928 60.7053 9.28949 60.668 9.21634C60.6308 9.14318 60.5794 9.0781 60.517 9.02484C60.4545 8.97157 60.3821 8.93117 60.304 8.90595C60.2244 8.88002 60.1404 8.87027 60.057 8.8773ZM31.5006 10.3261C31.4169 10.3278 31.3345 10.3462 31.2581 10.3804C31.1831 10.4136 31.1153 10.4613 31.0587 10.5208C31.0021 10.5802 30.9578 10.6503 30.9284 10.7269C30.8989 10.8035 30.8848 10.8852 30.887 10.9672C30.8892 11.0493 30.9076 11.1301 30.9411 11.205L33.8684 17.791C33.9015 17.8661 33.9492 17.9339 34.0087 17.9905C34.0681 18.0471 34.1382 18.0914 34.2148 18.1209C34.2914 18.1503 34.3731 18.1644 34.4552 18.1622C34.5372 18.16 34.618 18.1416 34.693 18.1081C34.7681 18.0749 34.8359 18.0272 34.8925 17.9678C34.9491 17.9084 34.9935 17.8383 35.0229 17.7617C35.0524 17.6851 35.0665 17.6034 35.0643 17.5213C35.0622 17.4393 35.0438 17.3584 35.0103 17.2835L32.0829 10.6977C32.0333 10.5852 31.9515 10.4899 31.8479 10.4238C31.7443 10.3576 31.6235 10.3236 31.5006 10.326V10.3261ZM64.0645 10.3481C63.9417 10.3457 63.8208 10.3796 63.7172 10.4456C63.6135 10.5115 63.5316 10.6066 63.4817 10.7189L60.5455 17.3008C60.5119 17.3757 60.4935 17.4566 60.4912 17.5386C60.4889 17.6207 60.5028 17.7024 60.5322 17.779C60.5616 17.8557 60.6058 17.9258 60.6624 17.9853C60.7189 18.0448 60.7866 18.0926 60.8617 18.1259C60.9366 18.1595 61.0174 18.1779 61.0995 18.1802C61.1815 18.1825 61.2632 18.1686 61.3399 18.1392C61.4166 18.1098 61.4867 18.0656 61.5462 18.009C61.6057 17.9525 61.6535 17.8848 61.6867 17.8097L64.6229 11.228C64.6566 11.1531 64.675 11.0723 64.6773 10.9902C64.6796 10.9081 64.6657 10.8264 64.6363 10.7498C64.6069 10.6731 64.5627 10.603 64.5061 10.5434C64.4496 10.4839 64.3818 10.4361 64.3068 10.4028C64.2305 10.3687 64.1481 10.35 64.0645 10.3481ZM27.8223 12.2722C27.698 12.2632 27.5739 12.2921 27.4663 12.355C27.3951 12.3959 27.3327 12.4505 27.2827 12.5156C27.2326 12.5807 27.1959 12.655 27.1747 12.7343C27.1535 12.8136 27.1481 12.8963 27.1589 12.9777C27.1697 13.0591 27.1965 13.1376 27.2377 13.2086L28.7535 15.8341C28.7944 15.9053 28.8489 15.9677 28.914 16.0177C28.9791 16.0678 29.0534 16.1045 29.1328 16.1257C29.2121 16.1469 29.2948 16.1523 29.3762 16.1415C29.4576 16.1307 29.536 16.1039 29.607 16.0627C29.6782 16.0218 29.7406 15.9672 29.7907 15.9021C29.8407 15.837 29.8774 15.7627 29.8986 15.6834C29.9199 15.6041 29.9252 15.5214 29.9144 15.44C29.9036 15.3586 29.8768 15.2801 29.8356 15.2091L28.32 12.5838C28.269 12.495 28.197 12.4201 28.1102 12.3657C28.0234 12.3114 27.9246 12.2793 27.8224 12.2722H27.8223ZM67.6923 12.2722C67.5902 12.2791 67.4913 12.3112 67.4046 12.3655C67.3178 12.4199 67.2459 12.4948 67.195 12.5836L65.679 15.2091C65.6378 15.2802 65.611 15.3586 65.6002 15.44C65.5894 15.5214 65.5948 15.6042 65.6161 15.6835C65.6373 15.7628 65.6741 15.8371 65.7241 15.9022C65.7742 15.9673 65.8367 16.0218 65.9079 16.0627C65.9789 16.1039 66.0573 16.1307 66.1387 16.1415C66.2201 16.1523 66.3028 16.1469 66.3821 16.1257C66.4614 16.1045 66.5358 16.0678 66.6009 16.0177C66.6659 15.9677 66.7205 15.9053 66.7614 15.8341L68.2772 13.2084C68.3184 13.1374 68.3452 13.059 68.356 12.9776C68.3668 12.8962 68.3614 12.8135 68.3402 12.7342C68.3189 12.6548 68.2823 12.5805 68.2322 12.5154C68.1822 12.4503 68.1198 12.3958 68.0486 12.3549C67.9407 12.2924 67.8166 12.2636 67.6923 12.2722ZM24.2505 14.4999C24.126 14.5044 24.0057 14.5459 23.9049 14.6191C23.8383 14.6671 23.7819 14.7279 23.7389 14.7978C23.6959 14.8678 23.6671 14.9455 23.6542 15.0266C23.6413 15.1077 23.6445 15.1905 23.6637 15.2703C23.6829 15.3502 23.7177 15.4254 23.7661 15.4918L27.998 21.3256C28.0461 21.3921 28.1069 21.4485 28.1769 21.4915C28.2468 21.5346 28.3245 21.5633 28.4056 21.5762C28.4867 21.5891 28.5696 21.5859 28.6494 21.5667C28.7293 21.5475 28.8045 21.5127 28.8709 21.4644C28.9374 21.4163 28.9938 21.3556 29.0368 21.2856C29.0798 21.2157 29.1086 21.138 29.1215 21.0569C29.1344 20.9759 29.1312 20.893 29.112 20.8132C29.0928 20.7334 29.058 20.6582 29.0097 20.5918L24.7776 14.758C24.7177 14.675 24.6383 14.6081 24.5464 14.5631C24.4544 14.5181 24.3529 14.4964 24.2506 14.5L24.2505 14.4999ZM71.3088 14.5316C71.2066 14.5279 71.105 14.5494 71.013 14.5943C70.9211 14.6391 70.8416 14.706 70.7817 14.7889L66.5417 20.6171C66.4933 20.6833 66.4584 20.7586 66.4391 20.8384C66.4198 20.9182 66.4165 21.001 66.4293 21.0821C66.4421 21.1632 66.4708 21.241 66.5137 21.311C66.5566 21.3809 66.613 21.4417 66.6795 21.4899C66.7458 21.5383 66.8209 21.5732 66.9007 21.5925C66.9805 21.6118 67.0633 21.6152 67.1444 21.6024C67.2255 21.5897 67.3033 21.561 67.3733 21.5181C67.4433 21.4752 67.5041 21.4189 67.5523 21.3524L71.792 15.5244C71.8404 15.4581 71.8753 15.3829 71.8946 15.3031C71.9139 15.2233 71.9172 15.1405 71.9044 15.0594C71.8916 14.9783 71.8629 14.9005 71.82 14.8305C71.7771 14.7606 71.7207 14.6997 71.6542 14.6516C71.5537 14.578 71.4333 14.5362 71.3088 14.5316ZM21.0579 17.1773C20.9759 17.1729 20.8938 17.1848 20.8164 17.2123C20.739 17.2398 20.6679 17.2824 20.6071 17.3377C20.5459 17.3925 20.4962 17.4588 20.4608 17.5328C20.4254 17.6069 20.4049 17.6872 20.4006 17.7692C20.3963 17.8512 20.4083 17.9332 20.4357 18.0106C20.4632 18.0879 20.5057 18.1591 20.5608 18.22L22.5892 20.4734C22.644 20.5345 22.7104 20.5842 22.7844 20.6196C22.8585 20.6551 22.9388 20.6755 23.0208 20.6798C23.1028 20.6841 23.1848 20.6721 23.2622 20.6446C23.3395 20.6171 23.4107 20.5746 23.4716 20.5195C23.5327 20.4647 23.5824 20.3984 23.6178 20.3243C23.6533 20.2502 23.6737 20.1699 23.678 20.0879C23.6823 20.0059 23.6704 19.9239 23.6429 19.8465C23.6154 19.7691 23.5729 19.6979 23.5179 19.637L21.4897 17.3838C21.4349 17.3227 21.3686 17.2729 21.2945 17.2375C21.2204 17.202 21.14 17.1816 21.058 17.1773H21.0579ZM74.4613 17.1818C74.2957 17.1907 74.1403 17.265 74.0295 17.3884L72.0012 19.6412C71.946 19.7021 71.9035 19.7733 71.876 19.8506C71.8484 19.928 71.8365 20.0101 71.8407 20.0921C71.845 20.1741 71.8655 20.2545 71.9009 20.3286C71.9363 20.4026 71.986 20.469 72.0472 20.5238C72.1081 20.5789 72.1793 20.6214 72.2566 20.6489C72.334 20.6764 72.416 20.6883 72.498 20.684C72.58 20.6797 72.6604 20.6593 72.7345 20.6238C72.8085 20.5884 72.8749 20.5387 72.9297 20.4775L74.9583 18.2247C75.0134 18.1638 75.0558 18.0926 75.0833 18.0152C75.1108 17.9379 75.1227 17.8558 75.1184 17.7738C75.1141 17.6918 75.0937 17.6115 75.0583 17.5374C75.0228 17.4633 74.9731 17.3969 74.912 17.3421C74.8512 17.287 74.78 17.2445 74.7027 17.217C74.6254 17.1895 74.5434 17.1775 74.4614 17.1818H74.4613ZM17.998 20.1165C17.9161 20.1209 17.8358 20.1414 17.7617 20.1769C17.6877 20.2123 17.6213 20.262 17.5665 20.3231C17.5114 20.384 17.4689 20.4552 17.4414 20.5326C17.4139 20.61 17.402 20.692 17.4063 20.774C17.4106 20.856 17.4311 20.9363 17.4665 21.0104C17.5019 21.0845 17.5517 21.1508 17.6128 21.2056L22.9694 26.0275C23.0303 26.0826 23.1015 26.125 23.1788 26.1525C23.2562 26.18 23.3382 26.1919 23.4202 26.1876C23.5022 26.1833 23.5825 26.1629 23.6565 26.1274C23.7306 26.092 23.7969 26.0423 23.8517 25.9812C23.9068 25.9203 23.9493 25.8491 23.9768 25.7718C24.0043 25.6944 24.0163 25.6124 24.012 25.5304C24.0077 25.4484 23.9873 25.3681 23.9518 25.294C23.9164 25.22 23.8667 25.1536 23.8056 25.0988L18.4489 20.277C18.388 20.2218 18.3168 20.1793 18.2394 20.1518C18.162 20.1243 18.0799 20.1123 17.9979 20.1167L17.998 20.1165ZM77.536 20.1377C77.4539 20.1332 77.3718 20.145 77.2944 20.1725C77.2169 20.1999 77.1457 20.2425 77.0847 20.2976L71.7252 25.1158C71.664 25.1705 71.6142 25.2368 71.5787 25.3108C71.5432 25.3848 71.5227 25.4651 71.5183 25.5471C71.5139 25.6291 71.5258 25.7112 71.5532 25.7885C71.5806 25.8659 71.623 25.9372 71.678 25.9981C71.7328 26.0593 71.7991 26.109 71.8732 26.1445C71.9472 26.18 72.0276 26.2005 72.1096 26.2049C72.1916 26.2092 72.2736 26.1974 72.3511 26.1699C72.4285 26.1425 72.4997 26.1 72.5606 26.045L77.9206 21.2269C77.9818 21.1721 78.0315 21.1058 78.067 21.0318C78.1025 20.9577 78.123 20.8774 78.1274 20.7954C78.1317 20.7134 78.1199 20.6314 78.0924 20.554C78.065 20.4767 78.0225 20.4054 77.9675 20.3445C77.9128 20.2833 77.8465 20.2335 77.7724 20.1981C77.6983 20.1626 77.618 20.1421 77.536 20.1377ZM15.4534 23.3886C15.3511 23.3849 15.2495 23.4065 15.1576 23.4515C15.0656 23.4964 14.9862 23.5633 14.9263 23.6463C14.8779 23.7127 14.843 23.7879 14.8238 23.8677C14.8045 23.9475 14.8012 24.0304 14.814 24.1115C14.8269 24.1926 14.8557 24.2704 14.8987 24.3403C14.9417 24.4103 14.9981 24.4711 15.0646 24.5192L17.5172 26.3009C17.5835 26.3494 17.6587 26.3842 17.7385 26.4035C17.8183 26.4228 17.9012 26.4261 17.9823 26.4133C18.0634 26.4005 18.1411 26.3718 18.2111 26.3288C18.281 26.2858 18.3418 26.2294 18.3899 26.1629C18.4383 26.0966 18.4732 26.0213 18.4924 25.9415C18.5117 25.8617 18.515 25.7789 18.5022 25.6978C18.4894 25.6167 18.4606 25.5389 18.4177 25.469C18.3747 25.399 18.3184 25.3382 18.2519 25.29L15.7991 23.5081C15.6984 23.4347 15.578 23.393 15.4534 23.3886ZM80.0781 23.4113C79.9536 23.4158 79.8333 23.4573 79.7325 23.5305L77.2788 25.3108C77.2122 25.3589 77.1558 25.4197 77.1127 25.4896C77.0697 25.5595 77.0409 25.6373 77.028 25.7184C77.0151 25.7995 77.0183 25.8823 77.0375 25.9622C77.0567 26.042 77.0915 26.1173 77.1398 26.1837C77.1879 26.2502 77.2486 26.3066 77.3186 26.3497C77.3885 26.3927 77.4662 26.4215 77.5473 26.4344C77.6284 26.4473 77.7112 26.444 77.7911 26.4248C77.8709 26.4056 77.9462 26.3708 78.0125 26.3225L80.4664 24.542C80.533 24.494 80.5893 24.4332 80.6323 24.3633C80.6753 24.2934 80.7041 24.2156 80.717 24.1346C80.7299 24.0535 80.7266 23.9707 80.7074 23.8909C80.6882 23.8111 80.6534 23.7358 80.6051 23.6695C80.5452 23.5865 80.4658 23.5195 80.3739 23.4745C80.282 23.4295 80.1804 23.4078 80.0781 23.4113ZM13.0757 26.8787C12.9735 26.8856 12.8747 26.9177 12.788 26.972C12.7012 27.0264 12.6292 27.1013 12.5784 27.1901C12.5372 27.2611 12.5104 27.3396 12.4996 27.421C12.4887 27.5023 12.4941 27.5851 12.5154 27.6644C12.5366 27.7437 12.5733 27.818 12.6233 27.8831C12.6734 27.9482 12.7358 28.0028 12.807 28.0437L19.0486 31.6473C19.1196 31.6885 19.198 31.7153 19.2794 31.7261C19.3608 31.7369 19.4435 31.7315 19.5228 31.7103C19.6021 31.689 19.6765 31.6523 19.7416 31.6023C19.8066 31.5522 19.8612 31.4898 19.9021 31.4187C19.9433 31.3476 19.9701 31.2692 19.9809 31.1878C19.9917 31.1064 19.9864 31.0237 19.9651 30.9444C19.9439 30.8651 19.9072 30.7907 19.8571 30.7257C19.8071 30.6606 19.7447 30.606 19.6735 30.5651L13.4319 26.9615C13.3241 26.8989 13.2 26.8701 13.0757 26.8787ZM82.4392 26.8787C82.3148 26.8697 82.1907 26.8986 82.083 26.9615L75.8415 30.5651C75.7703 30.606 75.7079 30.6606 75.6579 30.7257C75.6078 30.7907 75.5711 30.8651 75.5499 30.9444C75.5287 31.0237 75.5233 31.1064 75.5341 31.1878C75.5449 31.2692 75.5717 31.3476 75.6129 31.4187C75.6538 31.4898 75.7084 31.5522 75.7735 31.6023C75.8386 31.6523 75.9129 31.689 75.9922 31.7103C76.0715 31.7315 76.1542 31.7369 76.2356 31.7261C76.317 31.7153 76.3955 31.6885 76.4665 31.6473L82.7082 28.0438C82.7794 28.0029 82.8418 27.9483 82.8918 27.8832C82.9419 27.8182 82.9786 27.7438 82.9998 27.6645C83.0211 27.5852 83.0264 27.5025 83.0156 27.4211C83.0048 27.3397 82.978 27.2613 82.9368 27.1903C82.8858 27.1015 82.8137 27.0266 82.727 26.9723C82.6402 26.918 82.5414 26.8859 82.4392 26.8788V26.8787ZM11.2776 30.5988C11.1547 30.5961 11.0338 30.6299 10.9301 30.6958C10.8264 30.7618 10.7446 30.857 10.6949 30.9695C10.6613 31.0444 10.6428 31.1252 10.6405 31.2073C10.6382 31.2893 10.6521 31.371 10.6815 31.4477C10.7109 31.5244 10.7551 31.5945 10.8116 31.654C10.8682 31.7136 10.9359 31.7614 11.011 31.7947L13.7799 33.0297C13.8548 33.0633 13.9356 33.0818 14.0177 33.0841C14.0997 33.0864 14.1815 33.0725 14.2581 33.0431C14.3348 33.0138 14.4049 32.9695 14.4645 32.913C14.524 32.8565 14.5718 32.7887 14.6051 32.7137C14.6387 32.6388 14.6572 32.5579 14.6595 32.4759C14.6618 32.3938 14.6478 32.3121 14.6184 32.2354C14.589 32.1587 14.5448 32.0886 14.4883 32.0291C14.4317 31.9695 14.364 31.9217 14.2889 31.8885L11.5201 30.6534C11.4438 30.6192 11.3613 30.6006 11.2776 30.5989V30.5988ZM84.2492 30.6246C84.1655 30.6263 84.0829 30.6449 84.0065 30.6791L81.237 31.9121C81.1619 31.9453 81.0941 31.993 81.0375 32.0525C80.9809 32.112 80.9366 32.182 80.9071 32.2587C80.8777 32.3353 80.8637 32.417 80.8659 32.4991C80.8681 32.5812 80.8865 32.662 80.9201 32.737C80.9533 32.8121 81.0011 32.8799 81.0606 32.9365C81.1201 32.9931 81.1903 33.0373 81.2669 33.0668C81.3436 33.0962 81.4254 33.1102 81.5075 33.108C81.5896 33.1057 81.6704 33.0873 81.7454 33.0537L84.5148 31.8206C84.5898 31.7874 84.6576 31.7397 84.7142 31.6802C84.7707 31.6207 84.815 31.5506 84.8444 31.474C84.8738 31.3973 84.8878 31.3156 84.8856 31.2335C84.8834 31.1515 84.8649 31.0707 84.8314 30.9957C84.7817 30.8834 84.7 30.7882 84.5964 30.7222C84.4928 30.6562 84.372 30.6222 84.2492 30.6246ZM9.67528 34.4871C9.55288 34.4974 9.43626 34.5437 9.34006 34.62C9.24387 34.6964 9.17241 34.7995 9.13465 34.9164C9.10904 34.9944 9.09909 35.0767 9.10536 35.1586C9.11164 35.2404 9.13402 35.3202 9.17121 35.3934C9.20841 35.4666 9.2597 35.5317 9.32212 35.585C9.38455 35.6383 9.45689 35.6788 9.535 35.7041L16.3876 37.9369C16.4656 37.9626 16.5479 37.9725 16.6298 37.9662C16.7117 37.96 16.7915 37.9376 16.8647 37.9004C16.9379 37.8632 17.003 37.8118 17.0563 37.7494C17.1096 37.6869 17.1501 37.6146 17.1754 37.5364C17.201 37.4584 17.2109 37.3761 17.2046 37.2943C17.1983 37.2124 17.1759 37.1326 17.1387 37.0594C17.1015 36.9862 17.0502 36.9211 16.9878 36.8678C16.9253 36.8145 16.853 36.7741 16.7749 36.7488L9.92229 34.5158C9.84271 34.4897 9.75871 34.4799 9.67528 34.487V34.4871ZM85.8485 34.5138C85.7652 34.5063 85.6812 34.5161 85.6018 34.5426L78.7476 36.7706C78.6695 36.7958 78.5971 36.8362 78.5346 36.8895C78.4721 36.9428 78.4208 37.0079 78.3835 37.0811C78.3463 37.1542 78.3238 37.234 78.3175 37.3159C78.3112 37.3978 78.3211 37.4801 78.3466 37.5581C78.3719 37.6362 78.4123 37.7086 78.4656 37.7711C78.5189 37.8335 78.584 37.8849 78.6571 37.9221C78.7303 37.9593 78.8101 37.9818 78.892 37.9881C78.9738 37.9944 79.0561 37.9845 79.1341 37.9589L85.9881 35.7311C86.0662 35.7059 86.1386 35.6655 86.2011 35.6122C86.2636 35.5589 86.315 35.4938 86.3523 35.4207C86.3895 35.3475 86.412 35.2677 86.4184 35.1858C86.4247 35.1039 86.4148 35.0216 86.3893 34.9436C86.3515 34.8266 86.2801 34.7234 86.1839 34.6469C86.0876 34.5704 85.971 34.5241 85.8485 34.5137V34.5138ZM8.677 38.5684C8.53303 38.5672 8.39309 38.6159 8.28096 38.7062C8.16882 38.7965 8.0914 38.9229 8.06185 39.0638C8.04461 39.144 8.0434 39.2269 8.05829 39.3077C8.07317 39.3884 8.10386 39.4654 8.14859 39.5343C8.19332 39.6031 8.25121 39.6625 8.31894 39.7089C8.38667 39.7553 8.4629 39.7879 8.54325 39.8048L11.5087 40.4351C11.589 40.4523 11.6719 40.4535 11.7526 40.4386C11.8334 40.4237 11.9104 40.3931 11.9792 40.3483C12.0481 40.3036 12.1074 40.2457 12.1538 40.178C12.2003 40.1103 12.2328 40.034 12.2497 39.9537C12.267 39.8734 12.2682 39.7905 12.2533 39.7098C12.2384 39.629 12.2077 39.552 12.163 39.4832C12.1183 39.4143 12.0604 39.355 11.9927 39.3086C11.925 39.2621 11.8488 39.2295 11.7685 39.2126L8.80317 38.5824C8.76169 38.5736 8.7194 38.5691 8.677 38.569V38.5684ZM86.8391 38.5743C86.7968 38.5753 86.7547 38.5798 86.7132 38.5877L83.7476 39.2177C83.6673 39.2346 83.5911 39.2672 83.5234 39.3136C83.4557 39.36 83.3978 39.4193 83.3531 39.4881C83.3084 39.5569 83.2777 39.6339 83.2628 39.7146C83.2479 39.7953 83.2491 39.8782 83.2663 39.9584C83.2832 40.0388 83.3158 40.115 83.3622 40.1828C83.4086 40.2505 83.468 40.3084 83.5368 40.3532C83.6057 40.3979 83.6827 40.4286 83.7634 40.4436C83.8442 40.4585 83.9271 40.4573 84.0074 40.4401L86.9727 39.8101C87.053 39.7932 87.1292 39.7606 87.197 39.7142C87.2647 39.6678 87.3226 39.6085 87.3673 39.5396C87.4121 39.4708 87.4428 39.3938 87.4577 39.313C87.4726 39.2323 87.4714 39.1494 87.4542 39.0691C87.4246 38.9282 87.3472 38.802 87.235 38.7117C87.1229 38.6214 86.983 38.5727 86.8391 38.5737V38.5743ZM7.92127 42.6739C7.77806 42.6877 7.64403 42.7506 7.54194 42.852C7.43985 42.9534 7.37599 43.087 7.3612 43.2301C7.35235 43.3117 7.35973 43.3943 7.38289 43.4731C7.40606 43.5519 7.44456 43.6253 7.49619 43.6892C7.54782 43.7531 7.61156 43.8061 7.68374 43.8453C7.75592 43.8844 7.83513 43.9089 7.91682 43.9174L15.0839 44.675C15.1656 44.6839 15.2482 44.6765 15.327 44.6533C15.4058 44.6302 15.4792 44.5917 15.5431 44.54C15.607 44.4884 15.66 44.4246 15.6991 44.3524C15.7383 44.2802 15.7628 44.201 15.7712 44.1193C15.7801 44.0376 15.7727 43.955 15.7495 43.8762C15.7263 43.7975 15.6877 43.724 15.6361 43.6602C15.5844 43.5963 15.5207 43.5433 15.4485 43.5042C15.3762 43.465 15.297 43.4406 15.2153 43.4321L8.04804 42.6743C8.00591 42.67 7.96344 42.6698 7.92127 42.6739ZM87.6 42.7278C87.5578 42.7232 87.5151 42.7234 87.4729 42.7282L80.3049 43.4764C80.2232 43.4847 80.144 43.5091 80.0718 43.5481C79.9995 43.5872 79.9357 43.6401 79.884 43.7039C79.8323 43.7676 79.7937 43.841 79.7704 43.9197C79.7471 43.9984 79.7396 44.081 79.7483 44.1626C79.7566 44.2443 79.781 44.3236 79.82 44.3958C79.8591 44.468 79.912 44.5319 79.9758 44.5836C80.0396 44.6353 80.1129 44.6739 80.1917 44.6972C80.2704 44.7205 80.353 44.728 80.4346 44.7193L87.6027 43.9711C87.6843 43.9628 87.7636 43.9384 87.8358 43.8994C87.908 43.8603 87.9718 43.8074 88.0236 43.7437C88.0753 43.6799 88.1139 43.6065 88.1372 43.5278C88.1605 43.4491 88.168 43.3665 88.1593 43.2849C88.1448 43.1417 88.0811 43.008 87.9791 42.9064C87.8772 42.8048 87.7432 42.7417 87.6 42.7276V42.7278ZM7.8 46.8763C7.71787 46.8761 7.63652 46.8921 7.56061 46.9235C7.4847 46.9548 7.41573 47.0008 7.35766 47.0589C7.29959 47.117 7.25356 47.186 7.22222 47.2619C7.19089 47.3378 7.17485 47.4191 7.17505 47.5013C7.17489 47.5834 7.19095 47.6647 7.22231 47.7406C7.25366 47.8164 7.2997 47.8854 7.35776 47.9434C7.41583 48.0014 7.48479 48.0474 7.56068 48.0788C7.63657 48.1101 7.7179 48.1261 7.8 48.1259H10.8316C10.9138 48.1261 10.9951 48.11 11.071 48.0787C11.1469 48.0474 11.2158 48.0014 11.2739 47.9433C11.332 47.8853 11.378 47.8163 11.4093 47.7404C11.4407 47.6645 11.4567 47.5832 11.4566 47.5011C11.4568 47.419 11.4407 47.3376 11.4094 47.2617C11.378 47.1858 11.332 47.1169 11.2739 47.0588C11.2159 47.0007 11.1469 46.9547 11.071 46.9234C10.9951 46.892 10.9138 46.876 10.8316 46.8762L7.8 46.8763ZM84.6831 46.8763C84.601 46.8761 84.5196 46.8921 84.4437 46.9235C84.3678 46.9548 84.2988 47.0008 84.2408 47.0589C84.1827 47.117 84.1367 47.186 84.1053 47.2619C84.074 47.3378 84.058 47.4191 84.0581 47.5013C84.058 47.5834 84.074 47.6647 84.1054 47.7406C84.1368 47.8164 84.1828 47.8854 84.2409 47.9434C84.2989 48.0014 84.3679 48.0474 84.4438 48.0788C84.5197 48.1101 84.601 48.1261 84.6831 48.1259H87.7147C87.7968 48.1261 87.8782 48.11 87.954 48.0787C88.0299 48.0474 88.0989 48.0014 88.1569 47.9433C88.215 47.8852 88.261 47.8163 88.2923 47.7404C88.3237 47.6645 88.3397 47.5832 88.3395 47.5011C88.3397 47.419 88.3237 47.3376 88.2924 47.2617C88.261 47.1858 88.215 47.1168 88.1569 47.0588C88.0989 47.0007 88.0299 46.9547 87.954 46.9233C87.8781 46.892 87.7967 46.876 87.7146 46.8762L84.6831 46.8763ZM15.2069 50.2823C15.1647 50.2778 15.1222 50.278 15.0801 50.2829L7.91177 51.0309C7.83009 51.0393 7.75086 51.0637 7.67863 51.1027C7.6064 51.1417 7.5426 51.1946 7.49087 51.2584C7.43915 51.3222 7.40053 51.3955 7.37723 51.4743C7.35394 51.553 7.34642 51.6355 7.35511 51.7172C7.36345 51.7989 7.38783 51.8781 7.42687 51.9503C7.46591 52.0225 7.51883 52.0864 7.58259 52.1381C7.64636 52.1898 7.71971 52.2284 7.79844 52.2517C7.87717 52.275 7.95972 52.2825 8.04136 52.2738L15.2097 51.5257C15.2914 51.5174 15.3706 51.493 15.4428 51.4539C15.515 51.4149 15.5789 51.362 15.6306 51.2982C15.6823 51.2344 15.7209 51.1611 15.7442 51.0824C15.7675 51.0036 15.775 50.9211 15.7663 50.8394C15.7517 50.6963 15.688 50.5625 15.586 50.461C15.484 50.3594 15.35 50.2963 15.2067 50.2823H15.2069ZM80.3037 50.3266C80.1605 50.3404 80.0264 50.4033 79.9243 50.5048C79.8223 50.6062 79.7584 50.7398 79.7436 50.8829C79.7348 50.9646 79.7422 51.0471 79.7654 51.1259C79.7885 51.2046 79.827 51.278 79.8786 51.3419C79.9303 51.4057 79.994 51.4588 80.0661 51.4979C80.1383 51.5371 80.2175 51.5616 80.2991 51.5701L87.4664 52.3277C87.548 52.3366 87.6306 52.3292 87.7094 52.306C87.7882 52.2828 87.8616 52.2443 87.9255 52.1926C87.9893 52.141 88.0423 52.0772 88.0815 52.005C88.1206 51.9329 88.1451 51.8536 88.1535 51.772C88.1623 51.6903 88.1549 51.6078 88.1317 51.529C88.1085 51.4502 88.07 51.3768 88.0184 51.313C87.9667 51.2492 87.903 51.1962 87.8308 51.157C87.7586 51.1179 87.6794 51.0934 87.5978 51.085L80.4308 50.3272C80.3886 50.3228 80.346 50.3226 80.3037 50.3266ZM11.6338 54.5478C11.5914 54.5481 11.5492 54.5526 11.5077 54.5612L8.54221 55.1912C8.46186 55.2081 8.38563 55.2407 8.3179 55.2871C8.25018 55.3335 8.19229 55.3928 8.14756 55.4617C8.10282 55.5305 8.07214 55.6076 8.05725 55.6883C8.04236 55.769 8.04357 55.8519 8.06081 55.9322C8.07769 56.0126 8.11027 56.0888 8.15669 56.1565C8.20311 56.2243 8.26245 56.2821 8.33131 56.3269C8.40016 56.3716 8.47717 56.4023 8.55792 56.4172C8.63867 56.4321 8.72156 56.4309 8.80184 56.4136L11.7674 55.7839C11.8478 55.767 11.924 55.7344 11.9917 55.688C12.0594 55.6416 12.1173 55.5822 12.162 55.5134C12.2067 55.4445 12.2374 55.3675 12.2523 55.2868C12.2671 55.206 12.2659 55.1232 12.2487 55.0429C12.2191 54.902 12.1418 54.7757 12.0297 54.6854C11.9176 54.5951 11.7778 54.5463 11.6338 54.5474V54.5478ZM83.88 54.5538C83.7361 54.5525 83.5962 54.6012 83.4841 54.6914C83.372 54.7817 83.2947 54.908 83.2652 55.0488C83.2479 55.1291 83.2466 55.212 83.2615 55.2927C83.2763 55.3735 83.3069 55.4505 83.3516 55.5194C83.3963 55.5882 83.4542 55.6476 83.5219 55.694C83.5896 55.7405 83.6658 55.7731 83.7461 55.79L86.7117 56.4201C86.792 56.4374 86.8749 56.4387 86.9556 56.4239C87.0363 56.409 87.1134 56.3784 87.1822 56.3337C87.2511 56.289 87.3105 56.2311 87.3569 56.1634C87.4034 56.0957 87.436 56.0195 87.4529 55.9392C87.4702 55.8589 87.4714 55.776 87.4565 55.6952C87.4416 55.6144 87.4109 55.5373 87.3662 55.4684C87.3215 55.3996 87.2636 55.3402 87.1959 55.2937C87.1281 55.2473 87.0519 55.2146 86.9715 55.1977L84.0062 54.5676C83.9647 54.5588 83.9224 54.5543 83.88 54.5542V54.5538ZM16.6275 57.0148C16.5441 57.0073 16.4601 57.0171 16.3807 57.0436L9.52654 59.2716C9.44841 59.2968 9.37604 59.3372 9.31357 59.3905C9.2511 59.4437 9.19977 59.5088 9.16252 59.582C9.12526 59.6551 9.10282 59.7349 9.09649 59.8168C9.09015 59.8986 9.10004 59.9809 9.12559 60.0589C9.1508 60.1371 9.19119 60.2095 9.24445 60.2719C9.29771 60.3344 9.36278 60.3858 9.43594 60.423C9.50909 60.4603 9.58889 60.4828 9.67075 60.4891C9.7526 60.4955 9.83491 60.4856 9.91293 60.46L16.7668 58.2319C16.845 58.2067 16.9174 58.1663 16.9799 58.113C17.0424 58.0598 17.0937 57.9947 17.131 57.9216C17.1683 57.8484 17.1907 57.7686 17.1971 57.6868C17.2035 57.6049 17.1936 57.5226 17.1681 57.4446C17.1303 57.3276 17.0589 57.2244 16.9627 57.1479C16.8665 57.0715 16.7499 57.0251 16.6275 57.0147V57.0148ZM78.8802 57.0369C78.7578 57.0472 78.6411 57.0935 78.5449 57.1699C78.4488 57.2462 78.3773 57.3493 78.3395 57.4662C78.3139 57.5442 78.304 57.6265 78.3103 57.7084C78.3165 57.7902 78.3389 57.8701 78.3762 57.9432C78.4134 58.0164 78.4647 58.0815 78.5271 58.1348C78.5895 58.1882 78.6619 58.2286 78.74 58.2539L85.5925 60.4867C85.6705 60.5124 85.7528 60.5223 85.8347 60.5161C85.9165 60.5098 85.9964 60.4874 86.0696 60.4502C86.1428 60.413 86.2079 60.3617 86.2612 60.2992C86.3145 60.2368 86.355 60.1644 86.3802 60.0862C86.4058 60.0082 86.4158 59.9259 86.4095 59.8441C86.4032 59.7622 86.3808 59.6824 86.3436 59.6092C86.3064 59.536 86.2551 59.4709 86.1927 59.4176C86.1302 59.3643 86.0579 59.3239 85.9797 59.2986L79.1272 57.0657C79.0476 57.0397 78.9636 57.0299 78.8802 57.0369ZM14.012 61.8947C13.9284 61.8963 13.8459 61.9147 13.7695 61.9489L10.9997 63.182C10.9246 63.2153 10.8569 63.263 10.8003 63.3225C10.7438 63.382 10.6995 63.4521 10.6701 63.5287C10.6407 63.6054 10.6267 63.6871 10.629 63.7691C10.6312 63.8512 10.6496 63.932 10.6832 64.0069C10.7164 64.082 10.7642 64.1498 10.8237 64.2063C10.8832 64.2629 10.9532 64.3072 11.0299 64.3366C11.1065 64.366 11.1882 64.38 11.2703 64.3778C11.3524 64.3755 11.4332 64.3571 11.5081 64.3236L14.2779 63.0906C14.353 63.0573 14.4207 63.0096 14.4773 62.9501C14.5338 62.8906 14.5781 62.8205 14.6075 62.7439C14.6369 62.6672 14.6509 62.5855 14.6486 62.5035C14.6464 62.4214 14.6279 62.3406 14.5944 62.2657C14.5447 62.1533 14.4629 62.0581 14.3592 61.9921C14.2556 61.9261 14.1347 61.8921 14.0119 61.8946L14.012 61.8947ZM81.4925 61.9185C81.3696 61.9157 81.2486 61.9495 81.1449 62.0154C81.0412 62.0814 80.9593 62.1766 80.9097 62.289C80.8761 62.3639 80.8576 62.4447 80.8553 62.5268C80.853 62.6089 80.8669 62.6906 80.8963 62.7673C80.9257 62.844 80.9699 62.9141 81.0265 62.9736C81.083 63.0331 81.1508 63.0809 81.2259 63.1142L83.9943 64.3492C84.0692 64.3829 84.1501 64.4014 84.2322 64.4037C84.3143 64.406 84.396 64.392 84.4727 64.3627C84.5494 64.3333 84.6195 64.289 84.6791 64.2325C84.7386 64.1759 84.7864 64.1081 84.8197 64.033C84.8532 63.9581 84.8717 63.8773 84.874 63.7953C84.8763 63.7132 84.8623 63.6315 84.8329 63.5548C84.8036 63.4782 84.7593 63.4081 84.7028 63.3486C84.6463 63.289 84.5785 63.2413 84.5035 63.208L81.735 61.9729C81.6586 61.9387 81.5761 61.9202 81.4925 61.9185ZM19.4045 63.2724C19.2801 63.2635 19.156 63.2924 19.0483 63.3553L12.8068 66.9589C12.7356 66.9998 12.6732 67.0543 12.6232 67.1194C12.5731 67.1845 12.5364 67.2588 12.5152 67.3381C12.494 67.4174 12.4886 67.5002 12.4994 67.5816C12.5102 67.6629 12.537 67.7414 12.5782 67.8124C12.6191 67.8836 12.6737 67.946 12.7388 67.996C12.8038 68.046 12.8782 68.0827 12.9574 68.104C13.0367 68.1252 13.1194 68.1306 13.2008 68.1198C13.2822 68.109 13.3606 68.0822 13.4316 68.041L19.6731 64.4377C19.7442 64.3968 19.8066 64.3422 19.8567 64.2771C19.9067 64.212 19.9434 64.1376 19.9646 64.0583C19.9859 63.979 19.9912 63.8963 19.9804 63.8149C19.9696 63.7335 19.9429 63.655 19.9017 63.584C19.8507 63.4952 19.7787 63.4204 19.692 63.366C19.6053 63.3117 19.5065 63.2795 19.4044 63.2724H19.4045ZM76.1102 63.2724C76.008 63.2794 75.9092 63.3114 75.8224 63.3657C75.7356 63.4201 75.6635 63.495 75.6126 63.5839C75.5714 63.6549 75.5446 63.7334 75.5338 63.8148C75.523 63.8962 75.5283 63.9789 75.5496 64.0583C75.5708 64.1376 75.6075 64.212 75.6576 64.2771C75.7076 64.3422 75.77 64.3968 75.8412 64.4377L82.0828 68.041C82.1538 68.0822 82.2323 68.109 82.3137 68.1198C82.3951 68.1306 82.4778 68.1252 82.5571 68.104C82.6364 68.0827 82.7108 68.046 82.7759 67.996C82.841 67.946 82.8956 67.8836 82.9365 67.8124C82.9777 67.7414 83.0045 67.6629 83.0153 67.5816C83.0261 67.5002 83.0208 67.4174 82.9995 67.3381C82.9783 67.2588 82.9416 67.1845 82.8915 67.1194C82.8415 67.0543 82.7791 66.9998 82.7079 66.9589L76.4662 63.3553C76.3585 63.2927 76.2345 63.2639 76.1102 63.2724ZM17.8478 68.5607C17.7232 68.5652 17.6027 68.6068 17.5019 68.6802L15.0482 70.4605C14.9816 70.5085 14.9252 70.5693 14.8822 70.6392C14.8391 70.7092 14.8104 70.7869 14.7975 70.868C14.7846 70.9491 14.7878 71.0319 14.807 71.1117C14.8262 71.1916 14.861 71.2668 14.9094 71.3332C14.9574 71.3997 15.0182 71.4561 15.0881 71.4991C15.158 71.5421 15.2358 71.5709 15.3168 71.5838C15.3979 71.5967 15.4807 71.5935 15.5605 71.5743C15.6403 71.5551 15.7156 71.5203 15.7819 71.472L18.236 69.6915C18.3025 69.6435 18.3589 69.5827 18.402 69.5128C18.445 69.4429 18.4738 69.3652 18.4867 69.2841C18.4996 69.2031 18.4964 69.1202 18.4772 69.0404C18.458 68.9606 18.4233 68.8853 18.3749 68.819C18.315 68.736 18.2355 68.669 18.1436 68.6239C18.0516 68.5789 17.95 68.5572 17.8477 68.5607H17.8478ZM77.6518 68.5818C77.5495 68.5781 77.4479 68.5997 77.3559 68.6446C77.264 68.6896 77.1846 68.7565 77.1247 68.8395C77.0763 68.9058 77.0414 68.981 77.0222 69.0609C77.0029 69.1407 76.9996 69.2235 77.0125 69.3046C77.0253 69.3857 77.0541 69.4635 77.0971 69.5335C77.1401 69.6034 77.1965 69.6642 77.263 69.7123L79.7156 71.4944C79.7819 71.5428 79.8571 71.5776 79.937 71.5969C80.0168 71.6161 80.0996 71.6194 80.1807 71.6066C80.2618 71.5937 80.3395 71.5649 80.4095 71.522C80.4794 71.479 80.5402 71.4226 80.5883 71.356C80.6367 71.2897 80.6715 71.2145 80.6907 71.1347C80.71 71.055 80.7133 70.9722 80.7005 70.8911C80.6876 70.81 80.6589 70.7323 80.616 70.6623C80.5731 70.5924 80.5167 70.5316 80.4502 70.4835L77.9977 68.7014C77.8969 68.6279 77.7765 68.5861 77.6518 68.5816V68.5818ZM23.4051 68.7975C23.3231 68.793 23.241 68.8048 23.1636 68.8322C23.0862 68.8597 23.015 68.9022 22.9541 68.9573L17.5943 73.7755C17.5331 73.8303 17.4833 73.8966 17.4479 73.9706C17.4124 74.0446 17.3919 74.1249 17.3875 74.2069C17.3832 74.2889 17.395 74.3709 17.4225 74.4483C17.4499 74.5257 17.4923 74.5969 17.5474 74.6579C17.6021 74.719 17.6684 74.7688 17.7425 74.8043C17.8165 74.8397 17.8968 74.8602 17.9788 74.8646C18.0608 74.8689 18.1428 74.8571 18.2202 74.8297C18.2976 74.8022 18.3688 74.7598 18.4297 74.7048L23.7895 69.8866C23.8507 69.8318 23.9005 69.7655 23.9359 69.6915C23.9714 69.6175 23.9919 69.5371 23.9963 69.4552C24.0006 69.3732 23.9888 69.2911 23.9613 69.2138C23.9339 69.1364 23.8915 69.0652 23.8364 69.0042C23.7817 68.9431 23.7154 68.8933 23.6414 68.8578C23.5674 68.8223 23.4871 68.8018 23.4051 68.7975ZM72.0944 68.8147C71.9288 68.8236 71.7735 68.8979 71.6627 69.0212C71.6076 69.0821 71.5651 69.1533 71.5376 69.2306C71.5101 69.308 71.4982 69.39 71.5025 69.472C71.5068 69.554 71.5273 69.6344 71.5627 69.7085C71.5981 69.7825 71.6479 69.8489 71.709 69.9037L77.0656 74.7255C77.1265 74.7806 77.1977 74.8231 77.2751 74.8505C77.3524 74.878 77.4345 74.8899 77.5165 74.8856C77.5984 74.8813 77.6788 74.8609 77.7528 74.8254C77.8269 74.79 77.8933 74.7403 77.9481 74.6792C78.0031 74.6183 78.0456 74.5472 78.0731 74.4698C78.1006 74.3924 78.1125 74.3104 78.1082 74.2284C78.1039 74.1464 78.0835 74.0661 78.048 73.9921C78.0126 73.918 77.9629 73.8517 77.9018 73.7969L72.5451 68.9749C72.4842 68.9198 72.4131 68.8773 72.3358 68.8498C72.2585 68.8223 72.1765 68.8104 72.0945 68.8147H72.0944ZM28.4901 73.3919C28.3878 73.3881 28.2862 73.4096 28.1942 73.4545C28.1022 73.4994 28.0227 73.5662 27.9627 73.6492L23.723 79.4772C23.6746 79.5435 23.6397 79.6187 23.6204 79.6985C23.601 79.7783 23.5977 79.8611 23.6104 79.9422C23.6232 80.0233 23.6519 80.1011 23.6948 80.171C23.7377 80.241 23.794 80.3019 23.8605 80.35C23.9268 80.3985 24.002 80.4334 24.0818 80.4527C24.1615 80.472 24.2444 80.4754 24.3255 80.4626C24.4066 80.4499 24.4843 80.4212 24.5543 80.3783C24.6243 80.3354 24.6852 80.2791 24.7333 80.2126L28.9732 74.3844C29.0216 74.3181 29.0565 74.243 29.0758 74.1632C29.0952 74.0834 29.0985 74.0005 29.0858 73.9194C29.073 73.8383 29.0443 73.7606 29.0014 73.6906C28.9585 73.6206 28.9022 73.5597 28.8357 73.5116C28.7351 73.438 28.6147 73.3963 28.4901 73.3919ZM66.99 73.4181C66.8654 73.4224 66.745 73.4639 66.6441 73.5372C66.5776 73.5853 66.5212 73.6461 66.4782 73.716C66.4352 73.7859 66.4064 73.8636 66.3935 73.9447C66.3806 74.0258 66.3839 74.1086 66.403 74.1884C66.4222 74.2682 66.457 74.3435 66.5054 74.4098L70.7372 80.2436C70.7852 80.3102 70.846 80.3666 70.9159 80.4096C70.9858 80.4527 71.0636 80.4815 71.1446 80.4944C71.2257 80.5073 71.3086 80.5041 71.3884 80.4849C71.4682 80.4657 71.5435 80.4309 71.6099 80.3825C71.6764 80.3345 71.7329 80.2738 71.7759 80.2038C71.8189 80.1339 71.8477 80.0562 71.8606 79.9751C71.8736 79.894 71.8703 79.8111 71.8511 79.7313C71.8319 79.6515 71.7972 79.5762 71.7488 79.5098L67.5168 73.676C67.4569 73.5931 67.3775 73.5261 67.2856 73.4811C67.1937 73.4361 67.0921 73.4145 66.9899 73.4181H66.99ZM23.017 74.3182C22.8514 74.3271 22.6961 74.4013 22.5852 74.5247L20.5567 76.7779C20.5017 76.8388 20.4592 76.91 20.4317 76.9874C20.4042 77.0647 20.3922 77.1468 20.3965 77.2287C20.4008 77.3107 20.4213 77.3911 20.4567 77.4651C20.4921 77.5392 20.5418 77.6056 20.6029 77.6604C20.6638 77.7155 20.735 77.758 20.8123 77.7854C20.8897 77.8129 20.9717 77.8248 21.0537 77.8205C21.1357 77.8162 21.2161 77.7957 21.2901 77.7603C21.3642 77.7248 21.4305 77.6751 21.4853 77.6139L23.514 75.3612C23.5691 75.3002 23.6116 75.229 23.6391 75.1517C23.6665 75.0743 23.6785 74.9922 23.6742 74.9102C23.6699 74.8282 23.6494 74.7479 23.614 74.6738C23.5786 74.5997 23.5288 74.5334 23.4677 74.4785C23.4069 74.4234 23.3357 74.3809 23.2584 74.3534C23.181 74.326 23.099 74.314 23.017 74.3184V74.3182ZM72.4941 74.3212C72.4122 74.3167 72.3302 74.3286 72.2528 74.3561C72.1755 74.3836 72.1044 74.4262 72.0436 74.4813C71.9825 74.5361 71.9328 74.6025 71.8973 74.6765C71.8619 74.7506 71.8414 74.8309 71.8371 74.9129C71.8328 74.9949 71.8447 75.0769 71.8722 75.1542C71.8996 75.2316 71.9421 75.3028 71.9972 75.3637L74.0253 77.6171C74.0801 77.6782 74.1464 77.7279 74.2205 77.7634C74.2946 77.7988 74.3749 77.8193 74.4569 77.8236C74.5389 77.8279 74.6209 77.8159 74.6982 77.7884C74.7756 77.7609 74.8468 77.7184 74.9077 77.6634C74.9688 77.6086 75.0185 77.5422 75.054 77.4681C75.0894 77.394 75.1099 77.3137 75.1142 77.2317C75.1185 77.1497 75.1066 77.0676 75.0791 76.9902C75.0516 76.9128 75.0091 76.8416 74.954 76.7807L72.9258 74.5277C72.871 74.4665 72.8046 74.4167 72.7305 74.3812C72.6564 74.3458 72.576 74.3253 72.494 74.321L72.4941 74.3212ZM34.4108 76.8204C34.2879 76.8176 34.1671 76.8514 34.0634 76.9173C33.9597 76.9833 33.8779 77.0785 33.8283 77.1909L30.8918 83.7728C30.8582 83.8477 30.8397 83.9286 30.8375 84.0106C30.8352 84.0927 30.8491 84.1744 30.8785 84.251C30.9079 84.3277 30.9521 84.3978 31.0086 84.4573C31.0652 84.5168 31.1329 84.5646 31.208 84.5979C31.2829 84.6315 31.3637 84.65 31.4458 84.6523C31.5278 84.6546 31.6096 84.6407 31.6862 84.6113C31.7629 84.5819 31.833 84.5377 31.8926 84.4812C31.9521 84.4246 31.9999 84.3569 32.0332 84.2818L34.9695 77.7C35.0031 77.6251 35.0216 77.5443 35.0239 77.4622C35.0262 77.3801 35.0123 77.2984 34.9829 77.2217C34.9535 77.1451 34.9093 77.075 34.8527 77.0154C34.7962 76.9559 34.7284 76.9081 34.6533 76.8748C34.577 76.8406 34.4945 76.8221 34.4108 76.8204ZM61.0646 76.8385C60.9809 76.8401 60.8984 76.8585 60.8219 76.8927C60.7468 76.9258 60.679 76.9735 60.6224 77.033C60.5658 77.0924 60.5214 77.1625 60.492 77.2391C60.4625 77.3158 60.4484 77.3975 60.4506 77.4795C60.4528 77.5616 60.4712 77.6424 60.5047 77.7174L63.432 84.3032C63.4652 84.3783 63.5129 84.4461 63.5724 84.5027C63.6319 84.5593 63.702 84.6036 63.7786 84.633C63.8552 84.6625 63.9369 84.6765 64.019 84.6744C64.1011 84.6722 64.1819 84.6538 64.2569 84.6203C64.332 84.5871 64.3997 84.5394 64.4563 84.48C64.5129 84.4205 64.5572 84.3505 64.5867 84.2738C64.6161 84.1972 64.6302 84.1156 64.628 84.0335C64.6258 83.9515 64.6075 83.8706 64.574 83.7957L61.6467 77.2099C61.597 77.0975 61.5153 77.0023 61.4117 76.9363C61.3082 76.8702 61.1874 76.8362 61.0646 76.8385ZM29.2509 78.8554C29.1488 78.8623 29.0499 78.8944 28.9632 78.9487C28.8764 79.003 28.8045 79.078 28.7536 79.1668L27.2379 81.7923C27.1967 81.8633 27.1699 81.9418 27.1591 82.0232C27.1482 82.1045 27.1536 82.1873 27.1748 82.2666C27.1961 82.3459 27.2328 82.4202 27.2828 82.4853C27.3329 82.5504 27.3953 82.6049 27.4665 82.6459C27.5375 82.6871 27.6159 82.7139 27.6973 82.7247C27.7787 82.7355 27.8614 82.7301 27.9407 82.7089C28.02 82.6876 28.0944 82.6509 28.1595 82.6009C28.2246 82.5508 28.2791 82.4884 28.32 82.4173L29.8359 79.7916C29.8771 79.7206 29.9039 79.6421 29.9147 79.5607C29.9255 79.4793 29.9201 79.3966 29.8989 79.3173C29.8776 79.238 29.8409 79.1637 29.7908 79.0986C29.7408 79.0335 29.6784 78.9789 29.6072 78.938C29.4993 78.8755 29.3752 78.8467 29.2509 78.8554ZM66.264 78.8554C66.1397 78.8465 66.0156 78.8754 65.908 78.9382C65.8368 78.9791 65.7744 79.0337 65.7244 79.0988C65.6743 79.1638 65.6376 79.2382 65.6164 79.3175C65.5952 79.3968 65.5898 79.4795 65.6006 79.5609C65.6114 79.6423 65.6382 79.7207 65.6794 79.7917L67.1952 82.4173C67.2361 82.4884 67.2906 82.5508 67.3557 82.6009C67.4208 82.6509 67.4951 82.6876 67.5745 82.7089C67.6538 82.7301 67.7365 82.7355 67.8179 82.7247C67.8993 82.7139 67.9777 82.6871 68.0487 82.6459C68.1199 82.6049 68.1823 82.5504 68.2324 82.4853C68.2824 82.4202 68.3191 82.3459 68.3403 82.2666C68.3616 82.1873 68.3669 82.1045 68.3561 82.0232C68.3453 81.9418 68.3185 81.8633 68.2773 81.7923L66.7616 79.1669C66.7106 79.0781 66.6385 79.0033 66.5517 78.9489C66.465 78.8946 66.3661 78.8624 66.264 78.8554ZM40.9478 78.9495C40.8039 78.9482 40.664 78.9969 40.5519 79.0871C40.4398 79.1774 40.3624 79.3037 40.3329 79.4445L38.8351 86.4945C38.8179 86.5748 38.8167 86.6577 38.8316 86.7384C38.8465 86.8192 38.8771 86.8962 38.9219 86.9651C38.9666 87.0339 39.0245 87.0933 39.0922 87.1397C39.1599 87.1861 39.2362 87.2187 39.3165 87.2356C39.3968 87.2528 39.4797 87.254 39.5605 87.2392C39.6413 87.2243 39.7183 87.1936 39.7872 87.1489C39.856 87.1041 39.9154 87.0462 39.9618 86.9785C40.0082 86.9108 40.0408 86.8345 40.0577 86.7542L41.5555 79.7043C41.575 79.6135 41.574 79.5196 41.5525 79.4293C41.531 79.3389 41.4897 79.2546 41.4314 79.1823C41.3732 79.11 41.2996 79.0516 41.2159 79.0114C41.1322 78.9712 41.0406 78.9502 40.9478 78.9499V78.9495ZM54.5451 78.9539C54.4524 78.9542 54.3608 78.9752 54.2772 79.0153C54.1935 79.0555 54.1199 79.1138 54.0617 79.186C54.0034 79.2583 53.9621 79.3426 53.9406 79.4328C53.9191 79.5231 53.918 79.617 53.9374 79.7077L55.4299 86.7588C55.4467 86.8391 55.4792 86.9154 55.5256 86.9832C55.5719 87.0509 55.6313 87.1089 55.7001 87.1537C55.7689 87.1985 55.8459 87.2292 55.9267 87.2442C56.0074 87.2591 56.0903 87.2579 56.1706 87.2408C56.251 87.2239 56.3272 87.1914 56.395 87.145C56.4628 87.0987 56.5207 87.0394 56.5655 86.9705C56.6103 86.9017 56.641 86.8247 56.656 86.744C56.6709 86.6632 56.6698 86.5803 56.6526 86.5L55.1597 79.4494C55.1302 79.3086 55.0529 79.1822 54.9409 79.0918C54.8289 79.0015 54.6891 78.9526 54.5451 78.9536V78.9539ZM47.7574 79.665C47.6753 79.6648 47.594 79.6808 47.5181 79.7122C47.4422 79.7435 47.3733 79.7896 47.3152 79.8476C47.2571 79.9057 47.2111 79.9747 47.1798 80.0506C47.1485 80.1265 47.1325 80.2078 47.1326 80.2899V87.497C47.1325 87.5791 47.1485 87.6604 47.1798 87.7364C47.2112 87.8123 47.2572 87.8812 47.3153 87.9393C47.3733 87.9974 47.4423 88.0434 47.5182 88.0747C47.5941 88.1061 47.6755 88.1221 47.7576 88.1219C47.8397 88.1221 47.921 88.106 47.9969 88.0747C48.0728 88.0433 48.1417 87.9973 48.1997 87.9392C48.2578 87.8811 48.3038 87.8122 48.3351 87.7363C48.3664 87.6604 48.3824 87.5791 48.3822 87.497V80.2901C48.3824 80.208 48.3664 80.1266 48.3351 80.0507C48.3038 79.9748 48.2577 79.9058 48.1997 79.8478C48.1416 79.7897 48.0727 79.7437 47.9968 79.7123C47.9209 79.681 47.8396 79.6649 47.7574 79.6651V79.665ZM36.288 81.994C36.1655 82.0044 36.0489 82.0508 35.9527 82.1272C35.8565 82.2037 35.785 82.3068 35.7472 82.4238L34.8101 85.307C34.7845 85.385 34.7746 85.4673 34.781 85.5492C34.7873 85.6311 34.8097 85.7109 34.847 85.7841C34.8843 85.8573 34.9356 85.9223 34.9981 85.9756C35.0606 86.0289 35.133 86.0693 35.2112 86.0945C35.2892 86.12 35.3715 86.1299 35.4534 86.1235C35.5352 86.1171 35.615 86.0947 35.6882 86.0574C35.7613 86.0201 35.8264 85.9688 35.8797 85.9063C35.9329 85.8438 35.9733 85.7714 35.9985 85.6932L36.9356 82.8102C36.9612 82.7322 36.9711 82.6499 36.9648 82.568C36.9584 82.4862 36.936 82.4064 36.8987 82.3332C36.8615 82.2601 36.8101 82.195 36.7477 82.1417C36.6852 82.0885 36.6128 82.0481 36.5347 82.0228C36.4552 81.9969 36.3713 81.9871 36.288 81.994ZM59.2221 81.9955C59.1388 81.9879 59.0548 81.9977 58.9754 82.024C58.8973 82.0492 58.8249 82.0896 58.7624 82.1429C58.6999 82.1962 58.6485 82.2613 58.6112 82.3344C58.5739 82.4076 58.5515 82.4874 58.5451 82.5693C58.5388 82.6511 58.5486 82.7335 58.5742 82.8115L59.5109 85.6947C59.5361 85.7729 59.5765 85.8453 59.6297 85.9078C59.683 85.9703 59.7481 86.0216 59.8213 86.0589C59.8944 86.0962 59.9743 86.1186 60.0561 86.125C60.138 86.1313 60.2203 86.1214 60.2984 86.0958C60.3765 86.0706 60.4489 86.0303 60.5114 85.977C60.5739 85.9238 60.6253 85.8587 60.6626 85.7856C60.6999 85.7125 60.7224 85.6327 60.7287 85.5508C60.7351 85.469 60.7253 85.3867 60.6997 85.3086L59.7626 82.4253C59.7249 82.3084 59.6535 82.2052 59.5574 82.1288C59.4612 82.0523 59.3447 82.006 59.2223 81.9955H59.2221ZM43.8354 83.6012C43.6922 83.6151 43.5581 83.6781 43.456 83.7796C43.3539 83.8811 43.2901 84.0147 43.2754 84.1579L42.9584 87.1731C42.9497 87.2547 42.9571 87.3372 42.9804 87.416C43.0036 87.4947 43.0421 87.5681 43.0938 87.6319C43.1455 87.6957 43.2092 87.7486 43.2814 87.7877C43.3536 87.8268 43.4328 87.8512 43.5145 87.8596C43.5961 87.8684 43.6787 87.861 43.7575 87.8377C43.8362 87.8145 43.9096 87.776 43.9735 87.7243C44.0373 87.6726 44.0903 87.6089 44.1294 87.5367C44.1685 87.4644 44.1929 87.3852 44.2013 87.3036L44.5183 84.2887C44.527 84.207 44.5196 84.1245 44.4964 84.0457C44.4732 83.9669 44.4346 83.8935 44.3829 83.8297C44.3313 83.7659 44.2675 83.7129 44.1953 83.6738C44.1231 83.6347 44.0439 83.6102 43.9622 83.6018C43.9201 83.5974 43.8776 83.5972 43.8354 83.6012ZM51.6545 83.6042C51.6123 83.5997 51.5697 83.5999 51.5275 83.6048C51.4458 83.6131 51.3665 83.6375 51.2943 83.6766C51.2221 83.7156 51.1583 83.7685 51.1066 83.8323C51.0548 83.896 51.0162 83.9694 50.9929 84.0481C50.9696 84.1268 50.9621 84.2094 50.9708 84.291L51.2858 87.3065C51.2941 87.3882 51.3185 87.4674 51.3576 87.5396C51.3966 87.6118 51.4495 87.6756 51.5133 87.7273C51.5771 87.779 51.6504 87.8176 51.7291 87.8409C51.8079 87.8641 51.8904 87.8716 51.972 87.8629C52.0537 87.8545 52.133 87.8302 52.2052 87.7911C52.2775 87.7521 52.3413 87.6991 52.393 87.6354C52.4447 87.5716 52.4833 87.4982 52.5066 87.4194C52.5299 87.3407 52.5374 87.2581 52.5287 87.1765L52.214 84.1613C52.1994 84.0181 52.1356 83.8844 52.0336 83.7829C51.9316 83.6813 51.7976 83.6182 51.6544 83.6042H51.6545Z" fill="#F4F2F3"/>
<g opacity="0.409" filter="url(#filter0_f_101_205)">
<path d="M77.0421 22.507L42.8568 42.3687L21.2424 76.3959L52.8625 52.9753L77.0421 22.507Z" fill="black"/>
</g>
<path d="M52.6566 52.6307L42.8579 42.3693L77.6175 18.9866L52.6566 52.6307Z" fill="#FF5150"/>
<path d="M52.6569 52.6306L42.8582 42.3692L17.8975 76.0135L52.6569 52.6306Z" fill="#F1F1F1"/>
<path opacity="0.243" d="M17.897 76.0134L52.6564 52.6307L77.6174 18.9866L17.897 76.0134Z" fill="black"/>
<defs>
<filter id="filter0_f_101_205" x="15.7834" y="17.048" width="66.7176" height="64.8069" filterUnits="userSpaceOnUse" color-interpolation-filters="sRGB">
<feFlood flood-opacity="0" result="BackgroundImageFix"/>
<feBlend mode="normal" in="SourceGraphic" in2="BackgroundImageFix" result="shape"/>
<feGaussianBlur stdDeviation="2.72951" result="effect1_foregroundBlur_101_205"/>
</filter>
<linearGradient id="paint0_linear_101_205" x1="47.7557" y1="93.9991" x2="47.7557" y2="0.999756" gradientUnits="userSpaceOnUse">
<stop stop-color="#BDBDBD"/>
<stop offset="1" stop-color="white"/>
</linearGradient>
<radialGradient id="paint1_radial_101_205" cx="0" cy="0" r="1" gradientUnits="userSpaceOnUse" gradientTransform="translate(47.9504 41.2509) scale(46.4999 46.4999)">
<stop stop-color="#06C2E7"/>
<stop offset="0.25" stop-color="#0DB8EC"/>
<stop offset="0.5" stop-color="#12AEF1"/>
<stop offset="0.75" stop-color="#1F86F9"/>
<stop offset="1" stop-color="#107DDD"/>
</radialGradient>
</defs>
</svg>
