<svg width="26" height="26" viewBox="0 0 26 26" fill="none" xmlns="http://www.w3.org/2000/svg">
<path d="M25 13V16.72C25 19.4083 25 20.7524 24.4768 21.7792C24.0166 22.6823 23.2823 23.4166 22.3792 23.8768C21.3524 24.4 20.0083 24.4 17.32 24.4H8.68C5.99175 24.4 4.64762 24.4 3.62085 23.8768C2.71767 23.4166 1.98336 22.6823 1.52317 21.7792C1 20.7524 1 19.4083 1 16.72V10.48C1 7.79175 1 6.44763 1.52317 5.42085C1.98336 4.51767 2.71767 3.78337 3.62085 3.32317C4.64762 2.80001 5.99175 2.80001 8.68 2.80001H13.6M21.4 8.80001V1.60001M17.8 5.20001H25M17.8 13.6C17.8 16.251 15.651 18.4 13 18.4C10.349 18.4 8.2 16.251 8.2 13.6C8.2 10.949 10.349 8.80001 13 8.80001C15.651 8.80001 17.8 10.949 17.8 13.6Z" stroke="white" stroke-opacity="0.66" stroke-width="1.4" stroke-linecap="round" stroke-linejoin="round"/>
</svg>
