<svg width="18" height="18" viewBox="0 0 18 18" fill="none" xmlns="http://www.w3.org/2000/svg">
<path d="M4.69231 2.84615C4.69231 3.86576 3.86576 4.69231 2.84615 4.69231C1.82655 4.69231 1 3.86576 1 2.84615C1 1.82655 1.82655 1 2.84615 1C3.86576 1 4.69231 1.82655 4.69231 2.84615ZM4.69231 2.84615H17M8.99989 9.00001C8.99989 10.0196 9.82644 10.8462 10.846 10.8462C11.8656 10.8462 12.6922 10.0196 12.6922 9.00001C12.6922 7.98041 11.8656 7.15386 10.846 7.15386C9.82644 7.15386 8.99989 7.98041 8.99989 9.00001ZM8.99989 9.00001L1 9M12.7691 9H17M4.69231 15.1538C4.69231 16.1734 3.86576 17 2.84615 17C1.82655 17 1 16.1734 1 15.1538C1 14.1342 1.82655 13.3077 2.84615 13.3077C3.86576 13.3077 4.69231 14.1342 4.69231 15.1538ZM4.69231 15.1538H16.9998" stroke="currentColor" stroke-opacity="0.66" stroke-width="1.4" stroke-linecap="round" stroke-linejoin="round"/>
</svg>
