<svg width="18" height="19" viewBox="0 0 18 19" fill="none" xmlns="http://www.w3.org/2000/svg">
<path d="M12.2 12.7V14.94C12.2 15.8361 12.2 16.2841 12.0256 16.6264C11.8722 16.9274 11.6274 17.1722 11.3264 17.3256C10.9841 17.5 10.5361 17.5 9.64 17.5H3.56C2.66392 17.5 2.21587 17.5 1.87362 17.3256C1.57256 17.1722 1.32779 16.9274 1.17439 16.6264C1 16.2841 1 15.8361 1 14.94V8.86C1 7.96392 1 7.51587 1.17439 7.17362C1.32779 6.87256 1.57256 6.62779 1.87362 6.47439C2.21587 6.3 2.66392 6.3 3.56 6.3H5.8M8.36 12.7H14.44C15.3361 12.7 15.7841 12.7 16.1264 12.5256C16.4274 12.3722 16.6722 12.1274 16.8256 11.8264C17 11.4841 17 11.0361 17 10.14V4.06C17 3.16392 17 2.71587 16.8256 2.37362C16.6722 2.07256 16.4274 1.82779 16.1264 1.67439C15.7841 1.5 15.3361 1.5 14.44 1.5H8.36C7.46392 1.5 7.01587 1.5 6.67362 1.67439C6.37256 1.82779 6.12779 2.07256 5.97439 2.37362C5.8 2.71587 5.8 3.16392 5.8 4.06V10.14C5.8 11.0361 5.8 11.4841 5.97439 11.8264C6.12779 12.1274 6.37256 12.3722 6.67362 12.5256C7.01587 12.7 7.46392 12.7 8.36 12.7Z" stroke="currentColor" stroke-opacity="0.83" stroke-width="1.4" stroke-linecap="round" stroke-linejoin="round"/>
</svg>
