<svg width="28" height="28" viewBox="0 0 28 28" fill="none" xmlns="http://www.w3.org/2000/svg">
<path d="M25.5479 20.2413C24.4588 19.0649 22.6437 18.9473 21.3126 19.7708L18.8925 17.8885C19.8606 16.2416 19.9816 14.2417 19.0135 12.5948L21.4337 10.8302C23.0067 12.1242 25.3059 12.0066 26.7579 10.5949C28.331 9.06555 28.452 6.59511 26.8789 5.06579C25.3059 3.53647 22.7647 3.41883 21.1916 4.94815C19.9816 6.12455 19.6186 7.88915 20.3446 9.41847L18.0455 11.1831C16.1094 9.41847 13.0842 9.18319 11.0271 10.5949L8.72796 8.35971C10.059 6.59511 9.93803 4.00703 8.24394 2.36007C6.42884 0.477835 3.28267 0.477835 1.46757 2.24243C-0.468534 4.00703 -0.468534 7.06567 1.34656 8.83027C3.04066 10.4772 5.58179 10.7125 7.5179 9.53611L9.81702 11.7713C8.36494 13.7712 8.36495 16.4769 9.93803 18.3591L7.27589 21.1825C6.06582 20.5943 4.61374 20.8295 3.64569 21.7707C2.43562 22.9471 2.31462 24.9469 3.52468 26.1233C4.73475 27.2997 6.79186 27.4174 8.00192 26.241C9.09098 25.1822 9.21199 23.6529 8.48595 22.4765L11.0271 19.6531C13.0842 20.9472 15.8674 20.8295 17.6824 19.1826L20.1026 21.0648C19.6186 22.2412 19.7396 23.6529 20.7076 24.594C21.9177 25.8881 24.0958 25.8881 25.3059 24.7117C26.7579 23.5353 26.7579 21.5354 25.5479 20.2413Z" fill="currentColor"/>
</svg>
